<svg width="199" height="199" viewBox="0 0 199 199" fill="none" xmlns="http://www.w3.org/2000/svg">
<path d="M99.5 7C48.4136 7 7 48.4136 7 99.5C7 150.586 48.4136 192 99.5 192C150.586 192 192 150.586 192 99.5C192 48.4136 150.586 7 99.5 7Z" stroke="white" stroke-width="14" stroke-linecap="round" stroke-linejoin="round"/>
<path d="M28.0067 158.198C28.0067 158.198 48.6252 131.875 99.5 131.875C150.375 131.875 170.994 158.198 170.994 158.198" stroke="white" stroke-width="14" stroke-linecap="round" stroke-linejoin="round"/>
<path d="M99.5 99.5C114.826 99.5 127.25 87.0763 127.25 71.75C127.25 56.4241 114.826 44 99.5 44C84.1737 44 71.75 56.4241 71.75 71.75C71.75 87.0763 84.1737 99.5 99.5 99.5Z" stroke="white" stroke-width="14" stroke-linecap="round" stroke-linejoin="round"/>
</svg>
